<svg width="30" height="30" viewBox="0 0 30 30" fill="none" xmlns="http://www.w3.org/2000/svg">
<path d="M5.625 26.25H30V28.125H5.625V26.25Z" fill="#1B0977"/>
<path fill-rule="evenodd" clip-rule="evenodd" d="M18.72 1.875C18.2329 1.88346 17.7683 2.08116 17.4244 2.42625L1.4869 18.3637C1.13539 18.7154 0.937927 19.1922 0.937927 19.6894C0.937927 20.1866 1.13539 20.6634 1.4869 21.015L4.84878 24.375H17.6513L28.5132 13.5131C28.8647 13.1615 29.0621 12.6847 29.0621 12.1875C29.0621 11.6903 28.8647 11.2135 28.5132 10.8619L20.0757 2.42437C19.8979 2.24698 19.6863 2.1071 19.4534 2.01305C19.2205 1.919 18.9711 1.87269 18.72 1.87688V1.875ZM12.0019 12.9375L17.8838 18.7406C17.8838 18.7406 18.8213 19.6781 17.8838 20.6156L16.05 22.5H6.37128L3.40128 19.6875L10.1269 12.9356C11.0644 11.9981 12.0019 12.9375 12.0019 12.9375Z" fill="#1B0977"/>
</svg>
