<svg width="30" height="30" viewBox="0 0 30 30" fill="none" xmlns="http://www.w3.org/2000/svg">
<path fill-rule="evenodd" clip-rule="evenodd" d="M7.05301 27.9638C7.05301 27.9638 7.49987 30 9.79996 30H20.2C22.5 30 22.9468 27.9638 22.9468 27.9638L25 8.00004H4.99998L7.05301 27.9638ZM19 11.0001C19 10.4477 19.4476 10.0001 20 10.0001C20.5523 10.0001 21.0001 10.4477 21.0001 11.0001L20 26.0001C20 26.5524 19.5522 27.0001 19 27.0001C18.4478 27.0001 18 26.5523 18 26.0001L19 11.0001ZM14 11.0001C14 10.4477 14.4478 10.0001 15 10.0001C15.5523 10.0001 16 10.4477 16 11.0001V26.0001C16 26.5524 15.5523 27.0001 15 27.0001C14.4476 27.0001 14 26.5523 14 26.0001V11.0001ZM9.99998 10C10.5523 10 11 10.4476 11 11L12 26C12 26.5523 11.5523 27 11 27C10.4477 27 9.99998 26.5522 9.99998 26L9 11.0001C9 10.4477 9.44775 10 9.99998 10ZM24.3999 4.00159H20V2.00007C20 0.482948 19.5093 0 18 0H11.9999C10.6156 0 9.99998 0.670563 9.99998 2.00007V4.0017H5.60003C4.71571 4.0017 4 4.67293 4 5.50239C4 6.33196 4.71571 7.0032 5.60003 7.0032H24.3999C25.2842 7.0032 26 6.33196 26 5.50239C26 4.67293 25.2842 4.00159 24.3999 4.00159ZM18 4.00159H12L12.0002 1.99996H18.0001V4.00159H18Z" fill="#C20505"/>
</svg>
