<svg width="30" height="30" viewBox="0 0 30 30" fill="none" xmlns="http://www.w3.org/2000/svg">
<path fill-rule="evenodd" clip-rule="evenodd" d="M15.0014 18.9914L22.3993 26.5657C23.1414 27.3314 23.6243 27.3393 24.38 26.5657L25.8643 25.0457C26.5914 24.3014 26.6407 23.8129 25.8643 23.0179L18.0321 15L25.865 6.98215C26.5985 6.22858 26.6128 5.72001 25.865 4.95358L24.3807 3.43429C23.6107 2.64572 23.135 2.68215 22.4 3.43429L15.0014 11.0086L7.60355 3.43501C6.86855 2.68287 6.39283 2.64644 5.62283 3.43501L4.13855 4.95429C3.38998 5.72072 3.40355 6.22929 4.13855 6.98287L11.9707 15L4.13855 23.0179C3.36212 23.8129 3.40355 24.3014 4.13855 25.0457L5.62212 26.5657C6.3714 27.3393 6.85426 27.3314 7.60283 26.5657L15.0014 18.9914Z" fill="#E41717"/>
</svg>
